# xmcd
#
# Track frame offsets: 
#        150
#        19954
#        41222
#        61022
#        80822
#
# Disc length: 1360 seconds
#
# Revision: 1
# Processed by: cddbd v1.5.2PL0 Copyright (c) Steve Scherf et al.
# Submitted via: ExactAudioCopyFreeDBPlugin 1.0
#
DISCID=3d054e05
DTITLE=テュカ(CV:金元寿子) - 「ぷりずむコミュニケート」 テュカ盤
DYEAR=2015
DGENRE=JPop
TTITLE0=テュカ (金元寿子), レレイ (東山奈央), ロゥリィ (種田梨沙) - ぷりずむコミュニケート
TTITLE1=rest forest
TTITLE2=ぷりずむコミュニケート (テュカ ソロver.)
TTITLE3=テュカ (金元寿子), レレイ (東山奈央), ロゥリィ (種田梨沙) - ぷりずむコミュニケート (instrumenta
TTITLE3=l)
TTITLE4=rest forest (instrumental)
EXTD=
EXTT0=
EXTT1=
EXTT2=
EXTT3=
EXTT4=
PLAYORDER=
